# xmcd CD database file
#
# Track frame offsets:
#	150
#	22618
#	39563
#	63743
#
# Disc length: 1151 seconds
#
# Revision: 10
# Processed by: cddbd v1.5PL3 Copyright (c) Steve Scherf et al.
# Submitted via: CDex 1.50Beta7
#
DISCID=29047d04
DTITLE=MINMI - T.T.T／クリスマス☆ソング
DYEAR=2002
DGENRE=JPop
TTITLE0=T.T.T
TTITLE1=24／7"mitsu.nori-nori mix"
TTITLE2=クリスマス☆ソング
TTITLE3=T.T.T A-bu-ra-ka-ta-bu-ra ReMix
EXTD=YEAR: 2002
EXTT0=
EXTT1=
EXTT2=
EXTT3=
PLAYORDER=
